<svg width="65" height="65" viewBox="0 0 65 65" fill="none" xmlns="http://www.w3.org/2000/svg">
<path d="M32.5 63.9844C15.1074 63.9844 1.01562 49.8926 1.01562 32.5C1.01562 15.1074 15.1074 1.01562 32.5 1.01562C49.8926 1.01562 63.9844 15.1074 63.9844 32.5C63.9844 49.8926 49.8926 63.9844 32.5 63.9844ZM36.1689 45.7539L26.584 36.5625H49.7656C51.4541 36.5625 52.8125 35.2041 52.8125 33.5156V31.4844C52.8125 29.7959 51.4541 28.4375 49.7656 28.4375H26.584L36.1689 19.2461C37.4004 18.0654 37.4258 16.0977 36.2197 14.8916L34.8232 13.5078C33.6299 12.3145 31.7002 12.3145 30.5195 13.5078L13.6729 30.3418C12.4795 31.5352 12.4795 33.4648 13.6729 34.6455L30.5195 51.4922C31.7129 52.6855 33.6426 52.6855 34.8232 51.4922L36.2197 50.1084C37.4258 48.9023 37.4004 46.9346 36.1689 45.7539Z" fill="black"/>
</svg>
